<?xml version="1.0" encoding="iso-8859-1"?>
<!-- Generator: Adobe Illustrator 17.1.0, SVG Export Plug-In . SVG Version: 6.00 Build 0)  -->
<!DOCTYPE svg PUBLIC "-//W3C//DTD SVG 1.1//EN" "http://www.w3.org/Graphics/SVG/1.1/DTD/svg11.dtd">
<svg version="1.1" id="Capa_1" xmlns="http://www.w3.org/2000/svg" xmlns:xlink="http://www.w3.org/1999/xlink" x="0px" y="0px"
	 viewBox="0 0 371.109 371.109" style="enable-background:new 0 0 371.109 371.109;" xml:space="preserve">
<g>
	<path d="M303.506,276.71L192.077,4.996C190.228,0.487,186.908,0,185.567,0c-1.345,0-4.675,0.49-6.536,5.026L67.603,276.71
		c-1.13,2.756-0.92,5.618,0.577,7.85c1.513,2.255,4.119,3.549,7.152,3.549h220.444c3.033,0,5.639-1.293,7.152-3.549
		C304.426,282.328,304.636,279.466,303.506,276.71z"/>
	<path d="M209.554,314.109h-49c-4.411,0-8,3.589-8,8v41c0,4.411,3.589,8,8,8h49c4.411,0,8-3.589,8-8v-41
		C217.554,317.698,213.966,314.109,209.554,314.109z"/>
</g>
<g>
</g>
<g>
</g>
<g>
</g>
<g>
</g>
<g>
</g>
<g>
</g>
<g>
</g>
<g>
</g>
<g>
</g>
<g>
</g>
<g>
</g>
<g>
</g>
<g>
</g>
<g>
</g>
<g>
</g>
</svg>
